<?xml version="1.0" encoding="UTF-8"?>
<!--Generator: Apple Native CoreSVG 341-->
<!DOCTYPE svg
PUBLIC "-//W3C//DTD SVG 1.1//EN"
       "http://www.w3.org/Graphics/SVG/1.1/DTD/svg11.dtd">
<svg version="1.1" xmlns="http://www.w3.org/2000/svg" xmlns:xlink="http://www.w3.org/1999/xlink" viewBox="0 0 26.4747 24.8525">
 <g>
  <rect height="24.8525" opacity="0" width="26.4747" x="0" y="0"/>
  <path d="M0.517721 15.9452C1.14347 16.5704 2.37633 16.685 3.33175 15.8321C3.65846 15.5486 4.37167 14.7927 6.18004 12.9567C12.2474 6.80841 16.4598 2.57635 17.4627 3.41322C18.3338 4.10791 16.1092 7.26691 14.1572 9.97737C9.94498 15.8876 6.96408 19.5888 9.16996 21.7947C10.8928 23.5175 13.6601 21.8928 18.1923 17.924C20.8086 15.6144 22.7231 13.8125 23.372 14.4665C23.831 14.9199 23.2555 15.9809 22.2321 17.7478C21.0097 19.8498 19.5502 22.0215 20.9394 23.3946C21.9079 24.3737 23.7504 23.8605 26.1459 21.564C26.5017 21.2082 26.5972 20.7941 26.2886 20.4911C26.0122 20.2147 25.6081 20.2463 25.3101 20.5444C23.5977 22.2095 22.3697 22.8419 22.0284 22.4795C21.6288 22.1009 22.2279 20.9398 23.5317 18.6886C25.1798 15.8251 25.8939 14.1485 24.641 12.9272C22.8995 11.2224 20.8368 12.9708 16.8158 16.5093C13.0834 19.7919 11.7683 20.4253 11.2451 19.9076C10.5449 19.2074 11.5431 17.913 16.1032 11.5383C19.8646 6.27507 21.9026 2.97701 19.8494 1.04556C17.0655-1.58298 13.4337 0.485148 3.56104 10.2225C1.68632 12.0641 0.935893 12.7773 0.63584 13.1096C-0.265804 14.0911-0.118578 15.325 0.517721 15.9452Z" fill="white" fill-opacity="0.85"/>
 </g>
</svg>
